# xmcd
# 
# Track frame offsets:
#     150
#     14112
#     32680
#     45057
#     64685
#     84518
#     100369
#     122781
#     134485
#     156349
#     187191
# 
# Disc length: 2503
# 
# Revision: 1
# Processed by: cddbd v1.5.2PL0 Copyright (c) Steve Scherf et al.
# Submitted via: fre:ac v1.0.27
# 
DISCID=9509c50b
DTITLE=Fairfax - Water Cooler Stories
DYEAR=2004
DGENRE=Country-influenced Rock
TTITLE0=Angel Down
TTITLE1=Water Cooler Story
TTITLE2=Dollar Short
TTITLE3=If I Die
TTITLE4=Reformed Man
TTITLE5=Swell
TTITLE6=The Intervention
TTITLE7=Why Are You Crying
TTITLE8=Lets Go
TTITLE9=Suit Me Too
TTITLE10=data
EXTD=
EXTT0=
EXTT1=
EXTT2=
EXTT3=
EXTT4=
EXTT5=
EXTT6=
EXTT7=
EXTT8=
EXTT9=
EXTT10=
PLAYORDER=
